<svg xmlns="http://www.w3.org/2000/svg" viewBox="0 0 1280 320" role="img" aria-label="SmartCura logo">
  <title>SmartCura — horizontal logo, light surfaces</title>
  <!--
    Horizontal lockup for light surfaces (headers, README, documents).
    Wordmark uses live text with a font stack; for print or merch, convert the text
    to outlines in Figma/Illustrator (Inter Bold is the reference face).
  -->
  <g transform="translate(18 8) scale(0.3)">
    <g stroke-linecap="round" stroke-linejoin="round" fill="none">
      <path d="M496 386 C470 268 330 238 268 330 C234 380 232 436 252 484" stroke="#2563EB" stroke-width="62"/>
      <path d="M528 386 C554 268 694 238 756 330 C790 380 792 436 772 484" stroke="#2563EB" stroke-width="62"/>
      <path d="M292 596 C356 690 440 762 512 812 C584 762 668 690 732 596" stroke="#2563EB" stroke-width="62"/>
      <path d="M132 540 H372 L396 562 L452 330 L508 678 L556 540 H586 C600 472 648 472 662 540 H892" stroke="#06B6D4" stroke-width="54"/>
    </g>
  </g>
  <text x="352" y="212" font-family="Inter, Poppins, 'Segoe UI', system-ui, -apple-system, sans-serif" font-size="148" font-weight="700" letter-spacing="-3">
    <tspan fill="#0F172A">Smart</tspan><tspan fill="#2563EB">Cura</tspan>
  </text>
</svg>
